<svg xmlns="http://www.w3.org/2000/svg" viewBox="0 0 268.7 244.1"><defs><style>.a{fill:#fff;opacity:0.09;}</style></defs><path class="a" d="M188.8,142.2l6.7-.6,2.6,5.7,2.5-.2-8.1-18.3-2.9.3-4.7,19.4,2.5-.3Zm1.7-7.6c.3-1.2.5-2.3.7-3.5h0c.4,1.1.8,2.2,1.3,3.4l2.3,5.2-5.6.5Zm-47.6,38.9-.4-1.3-5.2,1.5-3.1-10.9-1.5.4,3.4,12.2Zm60.5-16.9c-.2-3.8-2.6-6.3-6.1-6.1s-5.7,3-5.5,7,2.8,6.3,6.1,6.1S203.6,160.9,203.4,156.6Zm-5.5,5.7c-2.6.1-4.2-2.2-4.3-4.9s1-5.4,3.7-5.5,4.2,2.3,4.4,4.9S200.5,162.1,197.9,162.3Zm-73.2-35.8-.6,13.3,1.6-.4.2-4.2,4.3-1.3,2.4,3.5,1.7-.5-7.7-11Zm4.8,6.3-3.6,1.1V130a19.22,19.22,0,0,0,0-2.4h.1a10.93,10.93,0,0,0,1.2,2Zm86.4,26.5,4.5.4,1,4,1.8.2-3.4-13h-2l-5.2,12.3h1.7Zm2-4.8c.3-.7.5-1.5.8-2.2h0c.1.7.3,1.5.5,2.3l.9,3.8-3.8-.3Zm26-25.4,1.6.4,2.3-12.5-2-.5-3.7,5.4a43.11,43.11,0,0,0-2.3,3.8h-.1c0-1.4-.1-2.8-.2-4.5l-.6-6.4-2-.5-4,12,1.5.4,1.7-5.2c.6-1.8,1.2-3.8,1.6-5.4h.1a30,30,0,0,0,.2,5.1l.5,6.3,1.2.4,3.7-5.5,2.7-4.2h0c-.4,1.5-.8,3.6-1.1,5.3Zm-95.2-16.8a31.13,31.13,0,0,0,2.3,4.1l2.5-.7a22.37,22.37,0,0,1-2.7-4.6c-1-1.8-2.2-2.9-3.7-3h0a5,5,0,0,0,2.2-5.5,4.79,4.79,0,0,0-2.4-3.1c-1.4-.7-3.1-.8-5.6-.1a20.33,20.33,0,0,0-4.4,1.6l4.7,18,2.3-.6-2-8,2.2-.5C146.2,109.3,147.5,110,148.7,112.3Zm-7.3-3.7-1.8-6.7,2.3-.8c2.5-.7,4.5-.1,5.1,2.3s-.7,3.9-3.2,4.5Zm-21.5,16.5-11.4-16.4-2.8.8-1,19.9,2.4-.7.3-6.3,6.4-1.8,3.6,5.2Zm-12.5-4.6.2-5.8a20.45,20.45,0,0,0,0-3.5h.1c.6.9,1.1,1.9,1.9,3l3.2,4.7Zm139.6,13-11.4,16.3,2.4.7,3.5-5.2,6.5,1.9.2,6.3,2.5.7-.9-19.9Zm-4.4,10.1,3.3-4.7,1.8-3h.1a21.64,21.64,0,0,0,0,3.6l.2,5.7Zm-103.5,15-.6-2-7.8,2.2-4.6-16.2-2.3.7,5.1,18.1Zm32.6,8.2-2.4-12.5-1.6.3,2.4,12.5Zm41.8-21.7h-8.1V128.2H203v18.9h10.5Zm-70.6-10.6-.4-1.3-5.2,1.5-3.1-10.9-1.5.4,3.4,12.2Zm12.3-42.2,1.6-.4-3.9-12-2.1.5-.6,6.5a36,36,0,0,0-.3,4.4h0c-.7-1.2-1.4-2.5-2.3-3.9L144,82.1l-2.1.5,2.3,12.5,1.5-.3-1-5.4c-.3-1.9-.8-3.9-1.1-5.5h0c.7,1.4,1.6,2.8,2.6,4.4l3.5,5.4,1.2-.3.7-6.6a46.43,46.43,0,0,0,.3-5h.1c.4,1.5,1,3.5,1.5,5.2Zm-5.9-28.8a4.79,4.79,0,0,0-2.4-3.1c-1.4-.7-3.1-.8-5.6-.1a20.33,20.33,0,0,0-4.4,1.6l4.7,18,2.3-.6-2-8,2.2-.5c2.1-.5,3.4.2,4.6,2.5a31.13,31.13,0,0,0,2.3,4.1l2.5-.7a22.37,22.37,0,0,1-2.7-4.6c-1-1.8-2.2-2.9-3.7-3h0a5,5,0,0,0,2.2-5.6Zm-5.5,5.4-2.4.7-1.8-6.7,2.3-.8c2.5-.7,4.5-.1,5.1,2.3s-.7,3.9-3.2,4.5Zm11.4,62.4,1.6-.4-3.9-12-2.1.5-.6,6.5a36,36,0,0,0-.3,4.4h0c-.7-1.2-1.4-2.5-2.3-3.9L144,121l-2.1.5,2.3,12.5,1.5-.3-1-5.4c-.3-1.9-.8-3.9-1.1-5.5h0c.7,1.4,1.6,2.8,2.6,4.4l3.5,5.4,1.2-.3.7-6.6a46.43,46.43,0,0,0,.3-5h.1c.4,1.5,1,3.5,1.5,5.2Zm-21-46.5-1.5.4,3.4,12.2,6.8-1.9-.4-1.3-5.2,1.5Zm-31.9,15.8c1.1,3.7,4,5.5,7.3,4.6s5-3.8,3.8-8-3.9-5.6-7.2-4.6-4.9,4.1-3.9,8Zm4.2-6.7c2.6-.8,4.6,1.4,5.3,3.8s0,5.5-2.5,6.2-4.5-1.2-5.3-3.8-.1-5.5,2.5-6.2Zm44.3-52.5-.6,6.5a36,36,0,0,0-.3,4.4h0c-.7-1.2-1.4-2.5-2.3-3.9L144,43.1l-2.1.5,2.3,12.5,1.5-.3-1-5.4c-.3-1.9-.8-3.9-1.1-5.5h0c.7,1.4,1.6,2.8,2.6,4.4l3.5,5.4,1.2-.3.7-6.6a46.43,46.43,0,0,0,.3-5h.1c.4,1.5,1,3.5,1.5,5.2l1.7,5.3,1.6-.4-3.9-12ZM139.1,197.6l-.6-2-7.8,2.2-4.6-16.2-2.3.7,5.1,18.1Zm-14.2-35-5.2-18.1-2.4.7,5.3,18.1Zm-.2-75.1-.6,13.3,1.6-.4.2-4.2,4.3-1.3,2.4,3.5,1.7-.5-7.7-11Zm4.8,6.3-3.6,1.1V91a19.22,19.22,0,0,0,0-2.4h.1a10.93,10.93,0,0,0,1.2,2Zm-9.7,34.1-.8,3.9c-.2,1-.4,1.9-.5,2.8h0l-2-2.1-2.6-2.9-1.8.5,5.8,5.9,1.5,5.2,1.6-.5-1.5-5.2,2.1-8.1Zm0-39-.8,3.9c-.2,1-.4,1.9-.5,2.8h0l-2-2.1-2.6-2.9-1.8.5,5.8,5.9,1.5,5.2,1.6-.5-1.5-5.2,2.1-8.1Zm5.1,34.7-5.2-18.1-2.4.7,5.3,18.1ZM105.7,70.5l-1,19.9,2.4-.7.3-6.3,6.4-1.8,3.6,5.2,2.5-.7L108.5,69.7Zm7.1,9.4-5.4,1.6.2-5.8a20.45,20.45,0,0,0,0-3.5h.1c.6.9,1.1,1.9,1.9,3Zm16.1,42.5,10.2-2.8-.6-2-7.8,2.2-4.6-16.2-2.3.7Zm-21.5,39,6.4-1.8,3.6,5.2,2.5-.7-11.4-16.4-2.8.8-1,19.9,2.4-.7Zm.2-11.2h.1c.6.9,1.1,1.9,1.9,3l3.2,4.7-5.4,1.6.2-5.8A20.45,20.45,0,0,0,107.6,150.2Zm55.7,2.6c4.7-1,7.8-5.2,6.5-11.6s-5.3-8.6-10.4-7.5-7.7,5.7-6.4,11.6,5.5,8.6,10.3,7.5Zm-7.8-8.2c-.9-4,.3-8.1,4.2-8.9s6.8,2.5,7.6,6.2-.5,8.1-4.3,8.9-6.6-2.2-7.5-6.2Zm4.6-57.5,4.3-.9,2.2,3.6,1.7-.4-6.9-11.5-2,.5L158,91.7l1.6-.4Zm.4-5.1c.1-.9.1-1.6.2-2.4h0l1.1,2.1,2,3.3-3.7.8Zm-.4,44.1,4.3-.9,2.2,3.6,1.7-.4-6.9-11.5-2,.5L158,130.7l1.6-.4Zm.4-5.1c.1-.9.1-1.6.2-2.4h0l1.1,2.1,2,3.3-3.7.8Zm7.2-44.4,2.4,12.5,1.6-.3-2.4-12.5Zm-4.4,37.2c4.7-1,7.8-5.2,6.5-11.6s-5.3-8.6-10.4-7.5-7.7,5.7-6.4,11.6,5.5,8.6,10.3,7.5Zm-7.8-8.2c-.9-4,.3-8.1,4.2-8.9s6.8,2.5,7.6,6.2-.5,8.1-4.3,8.9-6.6-2.2-7.5-6.2ZM153,67.3c1.2,5.5,5.5,8.6,10.3,7.5s7.8-5.2,6.5-11.6-5.3-8.6-10.4-7.5S151.7,61.4,153,67.3Zm6.7-9.6c4-.9,6.8,2.5,7.6,6.2s-.5,8.1-4.3,8.9-6.6-2.2-7.5-6.2S155.8,58.5,159.7,57.7Zm.4,107.4,4.3-.9,2.2,3.6,1.7-.4-6.9-11.5-2,.5L158,169.7l1.6-.4Zm.4-5.1c.1-.9.1-1.6.2-2.4h0l1.1,2.1,2,3.3-3.7.8Zm-.4-111.9,4.3-.9,2.2,3.6,1.7-.4-6.9-11.5-2,.5L158,52.7l1.6-.4Zm.4-5.1c.1-.9.1-1.6.2-2.4h0l1.1,2.1,2,3.3-3.7.8Zm-5.3,127.3,1.6-.4-3.9-12-2.1.5-.6,6.5a36,36,0,0,0-.3,4.4h0c-.7-1.2-1.4-2.5-2.3-3.9L144,160l-2.1.5,2.3,12.5,1.5-.3-1-5.4c-.3-1.9-.8-3.9-1.1-5.5h0c.7,1.4,1.6,2.8,2.6,4.4l3.5,5.4,1.2-.3.7-6.6a46.43,46.43,0,0,0,.3-5h.1c.4,1.5,1,3.5,1.5,5.2Zm16.5-42.5-2.4-12.5-1.6.3,2.4,12.5Zm9.4-42.1-5.3.9L174,75.5l-1.7.3,2.1,12.4,7-1.1ZM167.7,37.6l2.4,12.5,1.6-.3-2.4-12.5ZM124.1,178.8l1.6-.4.2-4.2,4.3-1.3,2.4,3.5,1.7-.5-7.7-11-1.9.6Zm1.9-12.2h.1a10.93,10.93,0,0,0,1.2,2l2.2,3.2-3.6,1.1V169A19.27,19.27,0,0,0,126,166.6ZM247,16.5,235.6,32.8l2.4.7,3.5-5.2,6.5,1.9.2,6.3,2.5.7-.9-19.9Zm-4.4,10.1,3.3-4.7,1.8-3h.1a21.64,21.64,0,0,0,0,3.6l.2,5.7Zm25,59.3-5.8,11.3,6.2,3.2.7-1.2-4.8-2.5,5.2-10Zm0,78-5.8,11.3,6.2,3.2.7-1.2-4.8-2.5,5.2-10Zm-21.2-151,1.6.6,2.6-3.3,4.3,1.6-.2,4.2,1.7.6.4-13.4-1.9-.7Zm8.9-8.7a17.52,17.52,0,0,0-.2,2.4v3.9l-3.6-1.4,2.5-3,1.4-1.9Zm12.3,120.7-5.8,11.3,6.2,3.2.7-1.2-4.8-2.5,5.2-10Zm0,78-5.8,11.3,6.2,3.2.7-1.2-4.8-2.5,5.2-10ZM100.2,19.9a3,3,0,0,0-1.6-2,4.82,4.82,0,0,0-3.8-.1l-3,1L95,30.9l1.6-.4-1.4-5.3,1.5-.4c1.4-.3,2.3.2,3.1,1.8a27.31,27.31,0,0,0,1.5,2.7l1.7-.5a15.47,15.47,0,0,1-1.8-3.1,3.42,3.42,0,0,0-2.5-2h0A3.4,3.4,0,0,0,100.2,19.9Zm-3.7,3.7-1.6.4-1.2-4.5,1.5-.5c1.7-.4,3-.1,3.4,1.5S98.2,23.1,96.5,23.6ZM203,11.2V30.1h10.5v-2h-8.1V11.2ZM181.4,9.1l-.3-1.4-5.3.9L174.4,0h-1.7l1.7,10.2Zm3.3-.4L184,3.2l1.5-.2c1.5-.1,2.3.5,2.8,2.2l1.2,2.9,1.7-.2c-.3-.5-.7-1.7-1.4-3.4a3.1,3.1,0,0,0-2.1-2.3h0A3.79,3.79,0,0,0,189.6,0H188a2.9,2.9,0,0,1-2.5,1.8l-1.7.2-.2-2H182l1,8.9Zm-36,142.6a31.13,31.13,0,0,0,2.3,4.1l2.5-.7a22.37,22.37,0,0,1-2.7-4.6c-1-1.8-2.2-2.9-3.7-3h0a5,5,0,0,0,2.2-5.5,4.79,4.79,0,0,0-2.4-3.1c-1.4-.7-3.1-.8-5.6-.1a20.33,20.33,0,0,0-4.4,1.6l4.7,18,2.3-.6-2-8,2.2-.5C146.2,148.3,147.5,149,148.7,151.3Zm-7.3-3.7-1.8-6.7,2.3-.8c2.5-.7,4.5-.1,5.1,2.3s-.7,3.9-3.2,4.5Zm4.8,57.7,3.5,5.4,1.2-.3.7-6.6a46.43,46.43,0,0,0,.3-5h.1c.4,1.5,1,3.5,1.5,5.2l1.7,5.3,1.6-.4-3.9-12-2.1.5-.6,6.5a36,36,0,0,0-.3,4.4h0c-.7-1.2-1.4-2.5-2.3-3.9L144,199l-2.1.5,2.3,12.5,1.5-.3-1-5.4c-.3-1.9-.8-3.9-1.1-5.5h0A42.92,42.92,0,0,0,146.2,205.3ZM94,229.7l-1,9.7c-.2,1.7-.3,3.2-.4,4.6h2l.5-4.6c.3-2.8.4-5.3.5-7.6h.1c.6,2.3,1.5,5.3,2.3,7.8l1.3,4.4h2.5L97,229ZM83.5,189.6l-2.6-12.4-1.6.4L81.9,190Zm97.6-20.5-1.9,5.5c-.5,1.6-1,2.9-1.3,4.2h0l-2.5-3.6-3.4-4.7-2.8.4,7.6,9.8,1.2,7.9,2.5-.3-1.3-8,4.6-11.7Zm-79.9,12.6a3.42,3.42,0,0,0-2.5-2h0a3.4,3.4,0,0,0,1.5-3.8,3,3,0,0,0-1.6-2,4.82,4.82,0,0,0-3.8-.1l-3,1L95,186.9l1.6-.4-1.4-5.3,1.5-.4c1.4-.3,2.3.2,3.1,1.8a27.31,27.31,0,0,0,1.5,2.7l1.7-.5a15.47,15.47,0,0,1-1.8-3.1Zm-4.7-2.1-1.6.4-1.2-4.5,1.5-.5c1.7-.4,3-.1,3.4,1.5S98.2,179.1,96.5,179.6Zm91.8,20.6,1.2,2.9,1.7-.2c-.3-.5-.7-1.7-1.4-3.4a3.1,3.1,0,0,0-2.1-2.3h0a3.6,3.6,0,0,0,2-3.5,3.5,3.5,0,0,0-1.3-2.3,5.52,5.52,0,0,0-3.8-.6,20.45,20.45,0,0,0-3.1.6l1.5,12.5,1.7-.2-.7-5.5,1.5-.2c1.5-.1,2.3.5,2.8,2.2Zm-4.5-3.2-.5-4.6a5.87,5.87,0,0,1,1.6-.4c1.7-.1,3,.4,3.2,2a2.6,2.6,0,0,1-2.39,2.79h-.21Zm51.7-27.5-3.1-.4-4.5,8.7c-1.1,2.2-2,4.2-2.8,6h0c-.3-2-.6-4.1-1.1-6.6l-2.1-9.4-3-.4-3.7,18.5,2.3.3,1.5-7.9c.5-2.8,1.1-5.9,1.4-8.3h.1a59.43,59.43,0,0,0,1.2,7.5l1.9,9.3,1.8.2,4.5-8.6c1.3-2.5,2.3-4.7,3.3-6.8h0c-.3,2.3-.5,5.5-.7,8.1l-.6,8.3,2.4.3Zm-8.8,21.1-1.9,12.5,7,1.1.2-1.4-5.4-.8,1.7-11.1Zm31.1,21.8,1.5.6,5.2-11.5-1.4-.7Zm-48.2-10.3v-5.4l4.3-7.2H212l-1.8,3.4c-.5,1-1,1.8-1.3,2.6h-.1l-1.2-2.6-1.8-3.5H204l3.9,7.3v5.4ZM208,7.1h1.6V1.7l1-1.7h-1.5l-.2.5h-.1c-.1-.1-.1-.3-.2-.5H207l.9,1.7ZM124.7,243.5v.5h2.7l-.8-1.1Zm19.3-5.4-2.1.5,1,5.4h1.5c-.3-1.5-.6-2.9-.8-4.1h0c.7,1.3,1.5,2.6,2.4,4.1h1.9l-.3-.5Zm-76.6-2.6L69,244h2.5l-1.7-8.9Zm83.4.9-.6,6.5a4.07,4.07,0,0,0-.1,1.1h1.4v-1.2a46.43,46.43,0,0,0,.3-5h.1c.4,1.5,1,3.5,1.5,5.2l.3,1h1.7l-2.6-8.1Zm-94.8.4L54.3,244h2.2l.4-1.6c.3-1.2.5-2.4.7-3.5h0l1.3,3.3.8,1.8h2.6L59,236.6ZM266.5,244h1.9l.7-1.3-1.5-.8Zm-17.7,0h5l-2.4-.9,2.5-3,1.4-1.9h0a17.52,17.52,0,0,0-.2,2.4V244h1.6l.2-6.8-1.9-.7ZM7.5,3.9,9.6,5c1.9,1.1,2.3,2.4,1.6,5a18,18,0,0,0-.9,4.6l2.2,1.1a28,28,0,0,1,1.1-5.2c.5-2,.4-3.6-.7-4.7h0a4.8,4.8,0,0,0,5.4-2.6A5,5,0,0,0,18.9,0H16.4A2.61,2.61,0,0,1,16,2.2c-1,1.9-3.1,2.4-5.4,1.2L8.4,2.3,9.6,0H6.8L1.6,10l2.2,1.2Zm234.6,235a43.11,43.11,0,0,0-2.3,3.8h-.1c0-1.4-.1-2.8-.2-4.5l-.6-6.4-2-.5-4,12,1.5.4,1.7-5.2c.6-1.8,1.2-3.8,1.6-5.4h.1a30,30,0,0,0,.2,5.1l.4,5.7h1.9l3.1-4.5,2.7-4.2h0c-.4,1.5-.8,3.6-1.1,5.3l-.7,3.4h1.6l1.9-10-2-.5Zm-82.7-4.5-1,9.6H160v-.9l4.3-.9,1.2,1.8h1.9l-6.1-10.1Zm4.4,6.6-3.7.8.4-3.8c.1-.9.1-1.6.2-2.4h0l1.1,2.1ZM86.3,17.1l-1.5-8c-.5-2.8-1.1-5.9-1.6-8.2h0c1.1,2.1,2.4,4.2,3.9,6.6l5.2,8L94,15l1.1-9.6c.2-2,.3-3.7.4-5.4h-2L93,5.4a53.88,53.88,0,0,0-.4,6.6h-.1c-.9-1.8-2.1-3.7-3.4-5.8L84.9,0h-4l3.2,17.7ZM212.1,228.5l-1.8,3.4c-.5,1-1,1.8-1.3,2.6h-.1l-1.2-2.6-1.8-3.5h-1.8l3.9,7.3v5.4h1.6v-5.4l4.3-7.2Zm17.8-11c1.3-2.5,2.3-4.7,3.3-6.8h0c-.3,2.3-.5,5.5-.7,8.1l-.6,8.3,2.4.3,1.2-18.9-3.1-.4-4.5,8.7c-1.1,2.2-2,4.2-2.8,6h0c-.3-2-.6-4.1-1.1-6.6l-2.1-9.4-3-.4-3.7,18.5,2.3.3,1.5-7.9c.5-2.8,1.1-5.9,1.4-8.3h.1a59.43,59.43,0,0,0,1.2,7.5l1.9,9.3,1.8.2Zm-76.4,15.2a22.37,22.37,0,0,1-2.7-4.6c-1-1.8-2.2-2.9-3.7-3h0a5,5,0,0,0,2.2-5.5,4.79,4.79,0,0,0-2.4-3.1c-1.4-.7-3.1-.8-5.6-.1a20.33,20.33,0,0,0-4.4,1.6l4.7,18,2.3-.6-2-8,2.2-.5c2.1-.5,3.4.2,4.6,2.5a31.13,31.13,0,0,0,2.3,4.1Zm-9.7-7.8-2.4.7-1.8-6.7,2.3-.8c2.5-.7,4.5-.1,5.1,2.3S146.3,224.3,143.8,224.9Zm43.9,11.3h0a3.6,3.6,0,0,0,2-3.5,3.5,3.5,0,0,0-1.3-2.3,5.52,5.52,0,0,0-3.8-.6,20.45,20.45,0,0,0-3.1.6l1.5,12.5,1.7-.2-.7-5.5,1.5-.2c1.5-.1,2.3.5,2.8,2.2l1.2,2.9,1.7-.2c-.3-.5-.7-1.7-1.4-3.4a3.1,3.1,0,0,0-2.1-2.3Zm-2.2-.4-1.7.2-.5-4.6a5.87,5.87,0,0,1,1.6-.4c1.7-.1,3,.4,3.2,2a2.6,2.6,0,0,1-2.39,2.79Zm42.8-5.9-1.6-.3-1.9,12.5,7,1.1.2-1.4-5.4-.8Zm-47.2-21.8-1.9,5.5c-.5,1.6-1,2.9-1.3,4.2h0l-2.5-3.6-3.4-4.7-2.8.4,7.6,9.8,1.2,7.9,2.5-.3-1.3-8,4.6-11.7Zm77.6,27.6,9.4,4.6.9-1.8-7.2-3.6,7.5-15-2.2-1.1ZM107.4,5.4l6.4-1.8,3.6,5.2,2.5-.7L114.3,0h-2.8l1.3,1.9-5.4,1.6V0h-2.2l-.6,12.4,2.4-.7Zm-36,173.7-2,13.2,1.7-.3.6-4.1,4.4-.8,2,3.7,1.7-.3-6.4-11.7Zm4.1,6.8-3.7.7.6-3.9c.1-.8.1-1.6.2-2.3h0a15,15,0,0,0,1.1,2.1ZM267.6,7.9l-5.8,11.3,6.2,3.2.7-1.2-4.8-2.5,5.2-10ZM174,192.5l-1.7.3,2.1,12.4,7-1.1-.3-1.4-5.3.9Zm29-84.4h10.5v-2h-8.1V89.2H203Zm-54.3,82.2a31.13,31.13,0,0,0,2.3,4.1l2.5-.7a22.37,22.37,0,0,1-2.7-4.6c-1-1.8-2.2-2.9-3.7-3h0a5,5,0,0,0,2.2-5.5,4.79,4.79,0,0,0-2.4-3.1c-1.4-.7-3.1-.8-5.6-.1a20.33,20.33,0,0,0-4.4,1.6l4.7,18,2.3-.6-2-8,2.2-.5c2.1-.6,3.4.1,4.6,2.4Zm-7.3-3.7-1.8-6.7,2.3-.8c2.5-.7,4.5-.1,5.1,2.3s-.7,3.9-3.2,4.5ZM85.1,98.3l-1.6.4L86.4,111l6.9-1.6L93,108l-5.3,1.3Zm96.4-23.9L183,86.9l1.7-.2-.7-5.5,1.5-.2c1.5-.1,2.3.5,2.8,2.2l1.2,2.9,1.7-.2c-.3-.5-.7-1.7-1.4-3.4a3.1,3.1,0,0,0-2.1-2.3h0a3.6,3.6,0,0,0,2-3.5,3.5,3.5,0,0,0-1.3-2.3,5.52,5.52,0,0,0-3.8-.6A20.45,20.45,0,0,0,181.5,74.4Zm6.6,2.6a2.6,2.6,0,0,1-2.39,2.79h-.21l-1.7.2-.5-4.6a5.87,5.87,0,0,1,1.6-.4C186.6,74.9,187.9,75.4,188.1,77Zm-7-30.3-5.3.9L174,36.5l-1.7.3,2.1,12.4,7-1.1Zm-11.9,7.2,7.6,9.8,1.2,7.9,2.5-.3-1.3-8,4.6-11.7-2.7.5-1.9,5.5c-.5,1.6-1,2.9-1.3,4.2h0l-2.5-3.6L172,53.5Zm-49.4,113-.8,3.9c-.2,1-.4,1.9-.5,2.8h0l-2-2.1-2.6-2.9-1.8.5,5.8,5.9,1.5,5.2,1.6-.5-1.5-5.2,2.1-8.1Zm-20-23.3a27.31,27.31,0,0,0,1.5,2.7l1.7-.5a15.47,15.47,0,0,1-1.8-3.1,3.42,3.42,0,0,0-2.5-2h0a3.4,3.4,0,0,0,1.5-3.8,3,3,0,0,0-1.6-2,4.82,4.82,0,0,0-3.8-.1l-3,1L95,147.9l1.6-.4-1.4-5.3,1.5-.4c1.4-.3,2.3.2,3.1,1.8ZM94.9,141l-1.2-4.5,1.5-.5c1.7-.4,3-.1,3.4,1.5s-.4,2.6-2.1,3.1Zm-9.8-3.7-1.6.4L86.4,150l6.9-1.6L93,147l-5.3,1.3Zm24.5,6.9c3.1-.9,5-3.8,3.8-8s-3.9-5.6-7.2-4.6-4.9,4.1-3.9,8S106.3,145.1,109.6,144.2Zm-3.1-11.3c2.6-.8,4.6,1.4,5.3,3.8s0,5.5-2.5,6.2-4.5-1.2-5.3-3.8S103.9,133.6,106.5,132.9Zm-6.7-28.3a27.31,27.31,0,0,0,1.5,2.7l1.7-.5a15.47,15.47,0,0,1-1.8-3.1,3.42,3.42,0,0,0-2.5-2h0a3.4,3.4,0,0,0,1.5-3.8,3,3,0,0,0-1.6-2,4.82,4.82,0,0,0-3.8-.1l-3,1L95,108.9l1.6-.4-1.4-5.3,1.5-.4C98.1,102.5,99,103,99.8,104.6ZM94.9,102l-1.2-4.5,1.5-.5c1.7-.4,3-.1,3.4,1.5s-.4,2.6-2.1,3.1Zm93.4,20.2,1.2,2.9,1.7-.2c-.3-.5-.7-1.7-1.4-3.4a3.1,3.1,0,0,0-2.1-2.3h0a3.6,3.6,0,0,0,2-3.5,3.5,3.5,0,0,0-1.3-2.3,5.52,5.52,0,0,0-3.8-.6,20.45,20.45,0,0,0-3.1.6l1.5,12.5,1.7-.2-.7-5.5,1.5-.2C187,119.9,187.8,120.5,188.3,122.2Zm-4.5-3.2-.5-4.6a5.87,5.87,0,0,1,1.6-.4c1.7-.1,3,.4,3.2,2a2.6,2.6,0,0,1-2.39,2.79h-.21Zm19.6-1.4c-.2-3.8-2.6-6.3-6.1-6.1s-5.7,3-5.5,7,2.8,6.3,6.1,6.1,5.7-2.7,5.5-7Zm-5.5,5.7c-2.6.1-4.2-2.2-4.3-4.9s1-5.4,3.7-5.5,4.2,2.3,4.4,4.9-1.2,5.3-3.8,5.5Zm-9.1-20.1,6.7-.6,2.6,5.7,2.5-.2-8.1-18.3-2.9.3-4.7,19.4,2.5-.3Zm1.7-7.6c.3-1.2.5-2.3.7-3.5h0c.4,1.1.8,2.2,1.3,3.4l2.3,5.2-5.6.5Zm-9.4,29.1-5.3.9L174,114.5l-1.7.3,2.1,12.4,7-1.1ZM169.2,92.9l7.6,9.8,1.2,7.9,2.5-.3-1.3-8,4.6-11.7-2.7.5-1.9,5.5c-.5,1.6-1,2.9-1.3,4.2h0l-2.5-3.6L172,92.5Zm52.7-3.1-3-.4-3.7,18.5,2.3.3,1.5-7.9c.5-2.8,1.1-5.9,1.4-8.3h.1a59.43,59.43,0,0,0,1.2,7.5l1.9,9.3,1.8.2,4.5-8.6c1.3-2.5,2.3-4.7,3.3-6.8h0c-.3,2.3-.5,5.5-.7,8.1l-.6,8.3,2.4.3,1.2-18.9-3.1-.4-4.5,8.7c-1.1,2.2-2,4.2-2.8,6h0c-.3-2-.6-4.1-1.1-6.6Zm4.8-16.2-1.9,12.5,7,1.1.2-1.4-5.4-.8,1.7-11.1Zm-143.2,77-2.6-12.4-1.6.4L81.9,151Zm132.4-30.3,4.5.4,1,4,1.8.2-3.4-13h-2l-5.2,12.3h1.7Zm2-4.8c.3-.7.5-1.5.8-2.2h0c.1.7.3,1.5.5,2.3l.9,3.8-3.8-.3Zm-8.3,8.6v-5.4l4.3-7.2H212l-1.8,3.4c-.5,1-1,1.8-1.3,2.6h-.1l-1.2-2.6-1.8-3.5H204l3.9,7.3v5.4Zm17.1-11.5-1.9,12.5,7,1.1.2-1.4-5.4-.8,1.7-11.1ZM99.8,65.6a27.31,27.31,0,0,0,1.5,2.7l1.7-.5a15.47,15.47,0,0,1-1.8-3.1,3.42,3.42,0,0,0-2.5-2h0a3.4,3.4,0,0,0,1.5-3.8,3,3,0,0,0-1.6-2,4.82,4.82,0,0,0-3.8-.1l-3,1L95,69.9l1.6-.4-1.4-5.3,1.5-.4C98.1,63.5,99,64,99.8,65.6ZM94.9,63l-1.2-4.5,1.5-.5c1.7-.4,3-.1,3.4,1.5s-.4,2.6-2.1,3.1ZM86.3,95.1l-1.5-8c-.5-2.8-1.1-5.9-1.6-8.2h0c1.1,2.1,2.4,4.2,3.9,6.6l5.2,8L94,93l1.1-9.6c.3-2.8.4-5.3.5-7.6h.1c.6,2.3,1.5,5.3,2.3,7.8l2.4,8,2.3-.6L97,73l-3,.7-1,9.7a53.88,53.88,0,0,0-.4,6.6h-.1c-.9-1.8-2.1-3.7-3.4-5.8l-5.3-8-3,.7,3.3,18.7Zm-14.9-33-2,13.2,1.7-.3.6-4.1,4.4-.8,2,3.7,1.7-.3L73.4,61.8Zm4.1,6.8-3.7.7.6-3.9c.1-.8.1-1.6.2-2.3h0a15,15,0,0,0,1.1,2.1Zm106-33.5L183,47.9l1.7-.2-.7-5.5,1.5-.2c1.5-.1,2.3.5,2.8,2.2l1.2,2.9,1.7-.2c-.3-.5-.7-1.7-1.4-3.4a3.1,3.1,0,0,0-2.1-2.3h0a3.6,3.6,0,0,0,2-3.5,3.5,3.5,0,0,0-1.3-2.3,5.52,5.52,0,0,0-3.8-.6A20.45,20.45,0,0,0,181.5,35.4Zm6.6,2.6a2.6,2.6,0,0,1-2.39,2.79h-.21l-1.7.2-.5-4.6a5.87,5.87,0,0,1,1.6-.4C186.6,35.9,187.9,36.4,188.1,38ZM149.3,24.5a4.79,4.79,0,0,0-2.4-3.1c-1.4-.7-3.1-.8-5.6-.1a20.33,20.33,0,0,0-4.4,1.6l4.7,18,2.3-.6-2-8,2.2-.5c2.1-.5,3.4.2,4.6,2.5a31.13,31.13,0,0,0,2.3,4.1l2.5-.7a22.37,22.37,0,0,1-2.7-4.6c-1-1.8-2.2-2.9-3.7-3h0A5,5,0,0,0,149.3,24.5Zm-5.5,5.4-2.4.7-1.8-6.7,2.3-.8c2.5-.7,4.5-.1,5.1,2.3S146.3,29.3,143.8,29.9ZM203,69.1h10.5v-2h-8.1V50.2H203ZM83.5,111.6,80.9,99.2l-1.6.4L81.9,112ZM71.4,140.1l-2,13.2,1.7-.3.6-4.1,4.4-.8,2,3.7,1.7-.3-6.4-11.7Zm4.1,6.8-3.7.7.6-3.9c.1-.8.1-1.6.2-2.3h0a15,15,0,0,0,1.1,2.1Zm-4.1-45.8-2,13.2,1.7-.3.6-4.1,4.4-.8,2,3.7,1.7-.3-6.4-11.7Zm4.1,6.8-3.7.7.6-3.9c.1-.8.1-1.6.2-2.3h0a15,15,0,0,0,1.1,2.1Zm8-35.3L80.9,60.2l-1.6.4L81.9,73Zm143.2,79-1.9,12.5,7,1.1.2-1.4-5.4-.8,1.7-11.1Zm-38.4,9.6,1.2,2.9,1.7-.2c-.3-.5-.7-1.7-1.4-3.4a3.1,3.1,0,0,0-2.1-2.3h0a3.6,3.6,0,0,0,2-3.5,3.5,3.5,0,0,0-1.3-2.3,5.52,5.52,0,0,0-3.8-.6,20.45,20.45,0,0,0-3.1.6l1.5,12.5,1.7-.2-.7-5.5,1.5-.2c1.5-.1,2.3.5,2.8,2.2Zm-4.5-3.2-.5-4.6a5.87,5.87,0,0,1,1.6-.4c1.7-.1,3,.4,3.2,2a2.6,2.6,0,0,1-2.39,2.79h-.21ZM226.7,34.6l-1.9,12.5,7,1.1.2-1.4-5.4-.8,1.7-11.1Zm-45.6,95.5-1.9,5.5c-.5,1.6-1,2.9-1.3,4.2h0l-2.5-3.6-3.4-4.7-2.8.4,7.6,9.8,1.2,7.9,2.5-.3-1.3-8,4.6-11.7Zm54.4.4-3.1-.4-4.5,8.7c-1.1,2.2-2,4.2-2.8,6h0c-.3-2-.6-4.1-1.1-6.6l-2.1-9.4-3-.4-3.7,18.5,2.3.3,1.5-7.9c.5-2.8,1.1-5.9,1.4-8.3h.1a59.43,59.43,0,0,0,1.2,7.5l1.9,9.3,1.8.2,4.5-8.6c1.3-2.5,2.3-4.7,3.3-6.8h0c-.3,2.3-.5,5.5-.7,8.1l-.6,8.3,2.4.3Zm-25.9,32.6v-5.4l4.3-7.2H212l-1.8,3.4c-.5,1-1,1.8-1.3,2.6h-.1l-1.2-2.6-1.8-3.5H204l3.9,7.3v5.4ZM174,153.5l-1.7.3,2.1,12.4,7-1.1-.3-1.4-5.3.9Zm82.4-58.9.4-13.4-1.9-.7-8.5,10.4,1.6.6,2.6-3.3,4.3,1.6-.2,4.2Zm-5-7.5,2.5-3,1.4-1.9h0a17.52,17.52,0,0,0-.2,2.4v3.9ZM221.9,50.8l-3-.4-3.7,18.5,2.3.3,1.5-7.9c.5-2.8,1.1-5.9,1.4-8.3h.1a59.43,59.43,0,0,0,1.2,7.5l1.9,9.3,1.8.2,4.5-8.6c1.3-2.5,2.3-4.7,3.3-6.8h0c-.3,2.3-.5,5.5-.7,8.1l-.6,8.3,2.4.3,1.2-18.9-3.1-.4-4.5,8.7c-1.1,2.2-2,4.2-2.8,6h0c-.3-2-.6-4.1-1.1-6.6Zm34.5,82.8.4-13.4-1.9-.7-8.5,10.4,1.6.6,2.6-3.3,4.3,1.6-.2,4.2Zm-5-7.5,2.5-3,1.4-1.9h0a17.52,17.52,0,0,0-.2,2.4v3.9ZM119.8,205.9l-.8,3.9c-.2,1-.4,1.9-.5,2.8h0l-2-2.1-2.6-2.9-1.8.5,5.8,5.9,1.5,5.2,1.6-.5-1.5-5.2,2.1-8.1ZM52.3,36.6H46.9V25.4H45.2V38.1h7Zm-8,14.6c-.5-1.3-1.1-2.5-1.8-3.9L40.1,42H37.3l5.6,11-.3,8h2.5l.3-8L52,42.4H49.3l-2.9,5.1a36.19,36.19,0,0,0-2,3.8Zm1,103.9h7v-1.4H46.9V142.4H45.2ZM19,47.6c-1.3,5.5,1.2,10.1,6.1,11.2s9.3-1.3,10.8-7.6-1.1-10.1-6.1-11.3S20.4,41.7,19,47.6Zm10.3-5.8c3.9,1,4.9,5.2,4,8.9s-3.9,7.1-7.6,6.2-5.1-4.9-4.1-8.8S25.3,40.9,29.3,41.8Zm20,78.5-2.9,5.1a36.19,36.19,0,0,0-2,3.8h-.1c-.5-1.3-1.1-2.5-1.8-3.9L40.1,120H37.3l5.6,11-.3,8h2.5l.3-8L52,120.4Zm-39-27.7,2.2,1.1a28,28,0,0,1,1.1-5.2c.5-2,.4-3.6-.7-4.7h0a4.8,4.8,0,0,0,5.4-2.6,4.88,4.88,0,0,0,.4-3.9c-.6-1.4-1.8-2.6-4.2-3.8a25.78,25.78,0,0,0-4.3-1.9L1.6,88l2.2,1.2,3.7-7.3L9.6,83c1.9,1.1,2.3,2.4,1.6,5A18,18,0,0,0,10.3,92.6Zm.3-11.2L8.4,80.3l3.2-6.1,2.2.9c2.3,1.2,3.4,3,2.2,5.1S12.9,82.6,10.6,81.4ZM30.4,27.3l-1.8,2.3h0c-.19-.94-.42-1.88-.7-2.8l-1-3.8-1.8-.4,2.4,8-1.2,5.2,1.7.4,1.1-5.3,5.7-6.2-1.9-.4ZM28,153.2l1.1-5.3,5.7-6.2-1.9-.4-2.5,3-1.8,2.3h0c-.19-.94-.42-1.88-.7-2.8l-1-3.8-1.8-.4,2.4,8-1.2,5.2ZM10.3,131.6l2.2,1.1a28,28,0,0,1,1.1-5.2c.5-2,.4-3.6-.7-4.7h0a4.8,4.8,0,0,0,5.4-2.6,4.88,4.88,0,0,0,.4-3.9c-.6-1.4-1.8-2.6-4.2-3.8a25.78,25.78,0,0,0-4.3-1.9L1.6,127l2.2,1.2,3.7-7.3L9.6,122c1.9,1.1,2.3,2.4,1.6,5A18,18,0,0,0,10.3,131.6Zm.3-11.2-2.2-1.1,3.2-6.1,2.2.9c2.3,1.2,3.4,3,2.2,5.1S12.9,121.6,10.6,120.4Zm-.3-66.8,2.2,1.1a28,28,0,0,1,1.1-5.2c.5-2,.4-3.6-.7-4.7h0a4.8,4.8,0,0,0,5.4-2.6,4.88,4.88,0,0,0,.4-3.9c-.6-1.4-1.8-2.6-4.2-3.8a25.78,25.78,0,0,0-4.3-1.9L1.6,49l2.2,1.2,3.7-7.3L9.6,44c1.9,1.1,2.3,2.4,1.6,5A18,18,0,0,0,10.3,53.6Zm.3-11.2L8.4,41.3l3.2-6.1,2.2.9c2.3,1.2,3.4,3,2.2,5.1S12.9,43.6,10.6,42.4ZM19,125.6c-1.3,5.5,1.2,10.1,6.1,11.2s9.3-1.3,10.8-7.6-1.1-10.1-6.1-11.3S20.4,119.7,19,125.6Zm10.3-5.8c3.9,1,4.9,5.2,4,8.9s-3.9,7.1-7.6,6.2-5.1-4.9-4.1-8.8S25.3,118.9,29.3,119.8Zm20-38.5-2.9,5.1a36.19,36.19,0,0,0-2,3.8h-.1c-.5-1.3-1.1-2.5-1.8-3.9L40.1,81H37.3l5.6,11-.3,8h2.5l.3-8L52,81.4ZM15.2,71.7c3.1,1.2,6.4-.1,7.9-4.2s.2-6.7-3.1-8-6.4.4-7.8,4.2S12.1,70.6,15.2,71.7Zm-1.4-7.4c1-2.6,3.1-4.5,5.7-3.5s2.8,3.9,1.9,6.2-3.2,4.4-5.6,3.5S12.9,66.8,13.8,64.3Zm27,90.6,1.7.2-3-13.1h-2L32,154l1.7.2,1.7-3.8,4.5.4Zm-5-5.8,1.6-3.5a22.07,22.07,0,0,0,.9-2.2h0c.1.7.3,1.5.5,2.4l.8,3.7ZM30.4,66.3l-1.8,2.3h0c-.19-.94-.42-1.88-.7-2.8l-1-3.8-1.8-.4,2.4,8-1.2,5.2,1.7.4,1.1-5.3,5.7-6.2-1.9-.4Zm21.9,9.3H46.9V64.4H45.2V77.1h7ZM35.4,72.4l4.5.4.9,4.1,1.7.2L39.5,64h-2L32,76l1.7.2Zm2-4.8a22.07,22.07,0,0,0,.9-2.2h0c.1.7.3,1.5.5,2.4l.8,3.7-3.8-.4Zm-27.1,103,2.2,1.1a28,28,0,0,1,1.1-5.2c.5-2,.4-3.6-.7-4.7h0a4.8,4.8,0,0,0,5.4-2.6,4.88,4.88,0,0,0,.4-3.9c-.6-1.4-1.8-2.6-4.2-3.8a25.78,25.78,0,0,0-4.3-1.9L1.6,166l2.2,1.2,3.7-7.3L9.6,161c1.9,1.1,2.3,2.4,1.6,5A18,18,0,0,0,10.3,170.6Zm.3-11.2-2.2-1.1,3.2-6.1,2.2.9c2.3,1.2,3.4,3,2.2,5.1s-3.1,2.4-5.4,1.2ZM28,114.2l1.1-5.3,5.7-6.2-1.9-.4-2.5,3-1.8,2.3h0c-.19-.94-.42-1.88-.7-2.8l-1-3.8-1.8-.4,2.4,8-1.2,5.2ZM19,86.6c-1.3,5.5,1.2,10.1,6.1,11.2s9.3-1.3,10.8-7.6-1.1-10.1-6.1-11.3S20.4,80.7,19,86.6Zm10.3-5.8c3.9,1,4.9,5.2,4,8.9s-3.9,7.1-7.6,6.2-5.1-4.9-4.1-8.8S25.3,79.9,29.3,80.8Zm6.1,30.6,4.5.4.9,4.1,1.7.2-3-13.1h-2L32,115l1.7.2Zm2-4.8a22.07,22.07,0,0,0,.9-2.2h0c.1.7.3,1.5.5,2.4l.8,3.7-3.8-.4Zm14.9,8H46.9V103.4H45.2v12.7h7Zm186.2-104,1.2.4,3.7-5.5,2.7-4.2h0c-.4,1.5-.8,3.6-1.1,5.3l-1.1,5.5,1.6.4L247.8,0h-2.3l-3.4,4.9a43.11,43.11,0,0,0-2.3,3.8h-.1c0-1.4-.1-2.8-.2-4.5L239.1,0h-1.3c0,1.3.1,2.7.2,4.3ZM215.9,3.3l4.5.4,1,4,1.8.2L221.1,0h-1.6l.6,2.4-3.8-.3.9-2.1h-1.6l-3,7.1h1.7Zm20.2,1.2c.5-1.5,1-3.1,1.4-4.5H236l-3.1,9.3,1.5.4ZM232,7.8,226.6,7l1.1-7H226l-1.2,8.1,7,1.1Zm32.5-1.3-1.4-.7-5.3,11.6,1.5.6ZM255.2,0h-.5l.4.2ZM28,192.2l1.1-5.3,5.7-6.2-1.9-.4-2.5,3-1.8,2.3h0c-.19-.94-.42-1.88-.7-2.8l-1-3.8-1.8-.4,2.4,8-1.2,5.2ZM258.7,79.7l9.4,4.6.9-1.8-7.2-3.6,7.5-15-2.2-1.1Zm4.4-34.9-5.3,11.6,1.5.6,5.2-11.5Zm-1-23.1-2.2-.9-7.1,17.5,2.3.9Zm5.5,25.2-5.8,11.3,6.2,3.2.7-1.2-4.8-2.5,5.2-10ZM63.3,219.4l-1.6,6.3a28.61,28.61,0,0,0-.9,4.4h-.1A32.49,32.49,0,0,0,59,226l-2.8-5.9-2,.2.4,12.7,1.5-.2-.2-5.4c-.1-1.9-.2-4-.3-5.6h0a43,43,0,0,0,2,4.7l2.6,5.8h1.2l1.7-6.3c.4-1.8.8-3.5,1.1-5h0c.2,1.6.5,3.7.8,5.4l.8,5.6,1.6-.2-2-12.5ZM52,198.4H49.3l-2.9,5.1a36.19,36.19,0,0,0-2,3.8h-.1c-.5-1.3-1.1-2.5-1.8-3.9L40.1,198H37.3l5.6,11-.3,8h2.5l.3-8ZM247,94.5l-11.4,16.3,2.4.7,3.5-5.2,6.5,1.9.2,6.3,2.5.7-.9-19.9Zm-4.4,10.1,3.3-4.7,1.8-3h.1a21.64,21.64,0,0,0,0,3.6l.2,5.7ZM10.3,209.6l2.2,1.1a28,28,0,0,1,1.1-5.2c.5-2,.4-3.6-.7-4.7h0a4.8,4.8,0,0,0,5.4-2.6,4.88,4.88,0,0,0,.4-3.9c-.6-1.4-1.8-2.6-4.2-3.8a25.78,25.78,0,0,0-4.3-1.9L1.6,205l2.2,1.2,3.7-7.3L9.6,200c1.9,1.1,2.3,2.4,1.6,5A18,18,0,0,0,10.3,209.6Zm.3-11.2-2.2-1.1,3.2-6.1,2.2.9c2.3,1.2,3.4,3,2.2,5.1s-3.1,2.4-5.4,1.2ZM45.1,178l.3-8L52,159.4H49.3l-2.9,5.1a36.19,36.19,0,0,0-2,3.8h-.1c-.5-1.3-1.1-2.5-1.8-3.9L40.1,159H37.3l5.6,11-.3,8ZM197.9,7.6c3.2-.2,5.7-2.7,5.5-7,0-.2-.1-.4-.1-.6h-1.7a2.18,2.18,0,0,0,.1.8c.1,2.8-1.2,5.3-3.8,5.5s-4.2-2.2-4.3-4.9a6.55,6.55,0,0,1,0-1.4h-1.7a7.57,7.57,0,0,0-.1,1.5C192.1,5.3,194.6,7.8,197.9,7.6Zm-58.8-5-.6-2-7.8,2.2L129.9,0h-2.5l1.5,5.4Zm-38.7,11,2.3-.6L98.6,0H96.3c.5,1.8,1.1,3.9,1.7,5.6ZM143.9,1.3,143.6,0h-2.5l.5,1.9Zm-19,5.3L123,0h-2.5l2.1,7.3ZM4.7,60.3l1.4.8c1.2.8,1.5,1.7,1,3.4a15,15,0,0,0-.8,3.1l1.5.8a16.76,16.76,0,0,1,.8-3.5,3.2,3.2,0,0,0-.3-3.2h0A3.31,3.31,0,0,0,12,60.1a3.09,3.09,0,0,0,.3-2.6,4.76,4.76,0,0,0-2.6-2.7,18.43,18.43,0,0,0-2.9-1.4L.6,64.3l1.4.8Zm3-5a4.24,4.24,0,0,1,1.4.6c1.5.9,2.2,2.1,1.4,3.5s-2.2,1.6-3.7.7l-1.4-.8ZM29.8,195.9c-4.9-1.1-9.4,1.8-10.8,7.7s1.2,10.1,6.1,11.2,9.3-1.3,10.8-7.6S34.8,197.1,29.8,195.9Zm3.5,10.8c-.9,4.2-3.9,7.1-7.6,6.2s-5.1-4.9-4.1-8.8,3.7-7.2,7.7-6.3S34.2,203,33.3,206.7Zm30-182.3-1.6,6.3a28.61,28.61,0,0,0-.9,4.4h-.1A32.49,32.49,0,0,0,59,31l-2.8-5.9-2,.2L54.6,38l1.5-.2-.2-5.4c-.1-1.9-.2-4-.3-5.6h0a43,43,0,0,0,2,4.7l2.6,5.8h1.2L63.1,31c.4-1.8.8-3.5,1.1-5h0c.2,1.6.5,3.7.8,5.4l.8,5.6,1.6-.2-2-12.5Zm0,78-1.6,6.3a28.61,28.61,0,0,0-.9,4.4h-.1A32.49,32.49,0,0,0,59,109l-2.8-5.9-2,.2.4,12.7,1.5-.2-.2-5.4c-.1-1.9-.2-4-.3-5.6h0a43,43,0,0,0,2,4.7l2.6,5.8h1.2l1.7-6.3c.4-1.8.8-3.5,1.1-5h0c.2,1.6.5,3.7.8,5.4l.8,5.6,1.6-.2-2-12.5ZM4.7,216.3l1.4.8c1.2.8,1.5,1.7,1,3.4a15,15,0,0,0-.8,3.1l1.5.8a16.76,16.76,0,0,1,.8-3.5,3.2,3.2,0,0,0-.3-3.2h0a3.31,3.31,0,0,0,3.7-1.6,3.09,3.09,0,0,0,.3-2.6,4.76,4.76,0,0,0-2.6-2.7,18.43,18.43,0,0,0-2.9-1.4L.6,220.3l1.4.8Zm3-5a4.24,4.24,0,0,1,1.4.6c1.5.9,2.2,2.1,1.4,3.5s-2.2,1.6-3.7.7l-1.4-.8Zm11,21.9c-.6-1.4-1.8-2.6-4.2-3.8a25.78,25.78,0,0,0-4.3-1.9L1.6,244H4.4l3.1-6.1L9.6,239c1.9,1.1,2.3,2.4,1.6,5h2.5a4.3,4.3,0,0,0-.8-4.2h0a4.8,4.8,0,0,0,5.4-2.6A4.91,4.91,0,0,0,18.7,233.2Zm-2.7,3c-1,1.9-3.1,2.4-5.4,1.2l-2.2-1.1,3.2-6.1,2.2.9C16.1,232.3,17.2,234.1,16,236.2Zm47.3-55.8-1.6,6.3a28.61,28.61,0,0,0-.9,4.4h-.1A32.49,32.49,0,0,0,59,187l-2.8-5.9-2,.2.4,12.7,1.5-.2-.2-5.4c-.1-1.9-.2-4-.3-5.6h0a43,43,0,0,0,2,4.7l2.6,5.8h1.2l1.7-6.3c.4-1.8.8-3.5,1.1-5h0c.2,1.6.5,3.7.8,5.4l.8,5.6,1.6-.2-2-12.5Zm-27.9,48,4.5.4.9,4.1,1.7.2-3-13.1h-2L32,232l1.7.2Zm2-4.8a22.07,22.07,0,0,0,.9-2.2h0c.1.7.3,1.5.5,2.4l.8,3.7-3.8-.4Zm9.5,8.1V220.4H45.2v12.7h7v-1.4Zm16.4-90.3-1.6,6.3a28.61,28.61,0,0,0-.9,4.4h-.1A32.49,32.49,0,0,0,59,148l-2.8-5.9-2,.2.4,12.7,1.5-.2-.2-5.4c-.1-1.9-.2-4-.3-5.6h0a43,43,0,0,0,2,4.7l2.6,5.8h1.2l1.7-6.3c.4-1.8.8-3.5,1.1-5h0c.2,1.6.5,3.7.8,5.4l.8,5.6,1.6-.2-2-12.5ZM29.8,234.9c-4.9-1.1-9.4,1.8-10.8,7.7a6.66,6.66,0,0,0-.2,1.4h2.6a3.09,3.09,0,0,1,.2-.9c.9-4,3.7-7.2,7.7-6.3s4.5,4,4.3,7.2h2.6C36.5,239.5,34.2,236,29.8,234.9ZM63.3,63.4l-1.6,6.3a28.61,28.61,0,0,0-.9,4.4h-.1A32.49,32.49,0,0,0,59,70l-2.8-5.9-2,.2L54.6,77l1.5-.2-.2-5.4c-.1-1.9-.2-4-.3-5.6h0a43,43,0,0,0,2,4.7l2.6,5.8h1.2L63.1,70c.4-1.8.8-3.5,1.1-5h0c.2,1.6.5,3.7.8,5.4l.8,5.6,1.6-.2-2-12.5ZM167.7,232.6l2.2,11.4h1.6l-2.2-11.7Zm8.1,10L174,231.5l-1.7.3,2.1,12.2h1.5l5.5-.9-.3-1.4ZM15.2,110.7c3.1,1.2,6.4-.1,7.9-4.2s.2-6.7-3.1-8-6.4.4-7.8,4.2S12.1,109.6,15.2,110.7Zm-1.4-7.4c1-2.6,3.1-4.5,5.7-3.5s2.8,3.9,1.9,6.2-3.2,4.4-5.6,3.5S12.9,105.8,13.8,103.3ZM267.1,23.8l-8.4,16.9,9.4,4.6.9-1.8-7.2-3.6,7.5-15ZM269,4.5,261.8.9l.4-.9h-2.7l-.8,1.7,9.4,4.6ZM132.7,241.2l.7,2.8h1.7l-.9-3.2Zm-86.3,1.2-.9,1.6h2.4l4.1-6.6H49.3Zm37.4-10.1-3,.7,1.9,11H85l-.2-.9c-.5-2.8-1.1-5.9-1.6-8.2h0c1.1,2.1,2.4,4.2,3.9,6.6l1.6,2.5h2.6c-.6-1.2-1.4-2.4-2.2-3.7ZM40.1,237H37.3l3.6,7.1h2.4a13.18,13.18,0,0,0-.8-1.7Zm65.6-10.5-.9,17.5h2.4l.2-4.6,6.4-1.8,3.6,5.2,2.5-.7-11.4-16.4Zm7.1,9.4-5.4,1.6.2-5.8a20.45,20.45,0,0,0,0-3.5h.1c.6.9,1.1,1.9,1.9,3ZM261.2,244H263l1.5-3.5-1.4-.7ZM52.3,194v-1.4H46.9V181.4H45.2v12.7ZM61.9,54.3,64.5,60l2.5-.2L59,41.6l-3,.2L51.3,61.2l2.5-.2,1.5-6.1Zm-5-6.9c.3-1.2.5-2.4.7-3.5h0l1.3,3.3,2.4,5.3-5.7.5Zm5,162.9,2.6,5.7,2.5-.2-8-18.2-3,.2-4.7,19.4,2.5-.2,1.5-6.1Zm-5-6.9c.3-1.2.5-2.4.7-3.5h0l1.3,3.3,2.4,5.3-5.7.5Zm5-110.1L64.5,99l2.5-.2L59,80.6l-3,.2-4.7,19.4,2.5-.2,1.5-6.1Zm-5-6.9c.3-1.2.5-2.4.7-3.5h0l1.3,3.3,2.4,5.3-5.7.5Zm5,45.9,2.6,5.7,2.5-.2-8-18.2-3,.2-4.7,19.4,2.5-.2,1.5-6.1Zm-5-6.9c.3-1.2.5-2.4.7-3.5h0l1.3,3.3,2.4,5.3-5.7.5Zm-1.6,46.5,6.6-.6,2.6,5.7,2.5-.2-8-18.2-3,.2-4.7,19.4,2.5-.2Zm1.6-7.5c.3-1.2.5-2.4.7-3.5h0l1.3,3.3,2.4,5.3-5.7.5ZM15.2,188.7c3.1,1.2,6.4-.1,7.9-4.2s.2-6.7-3.1-8-6.4.4-7.8,4.2S12.1,187.6,15.2,188.7Zm-1.4-7.4c1-2.6,3.1-4.5,5.7-3.5s2.8,3.9,1.9,6.2-3.2,4.4-5.6,3.5S12.9,183.8,13.8,181.3Zm1.4-31.6c3.1,1.2,6.4-.1,7.9-4.2s.2-6.7-3.1-8-6.4.4-7.8,4.2S12.1,148.6,15.2,149.7Zm-1.4-7.4c1-2.6,3.1-4.5,5.7-3.5s2.8,3.9,1.9,6.2-3.2,4.4-5.6,3.5S12.9,144.8,13.8,142.3Zm27,51.6,1.7.2-3-13.1h-2L32,193l1.7.2,1.7-3.8,4.5.4Zm-5-5.8,1.6-3.5a22.07,22.07,0,0,0,.9-2.2h0c.1.7.3,1.5.5,2.4l.8,3.7Zm-6-31.2c-4.9-1.1-9.4,1.8-10.8,7.7s1.2,10.1,6.1,11.2,9.3-1.3,10.8-7.6S34.8,158.1,29.8,156.9Zm3.5,10.8c-.9,4.2-3.9,7.1-7.6,6.2s-5.1-4.9-4.1-8.8,3.7-7.2,7.7-6.3S34.2,164,33.3,167.7ZM4.7,21.3l1.4.8c1.2.8,1.5,1.7,1,3.4a15,15,0,0,0-.8,3.1l1.5.8a16.76,16.76,0,0,1,.8-3.5,3.2,3.2,0,0,0-.3-3.2h0A3.31,3.31,0,0,0,12,21.1a3.09,3.09,0,0,0,.3-2.6,4.76,4.76,0,0,0-2.6-2.7,18.43,18.43,0,0,0-2.9-1.4L.6,25.3l1.4.8Zm3-5a4.24,4.24,0,0,1,1.4.6c1.5.9,2.2,2.1,1.4,3.5s-2.2,1.6-3.7.7l-1.4-.8Zm251,102.4,9.4,4.6.9-1.8-7.2-3.6,7.5-15-2.2-1.1ZM53.8,22l1.5-6.1,6.6-.6L64.5,21l2.5-.2L59,2.6l-3,.2L51.3,22.2ZM56.9,8.4c.3-1.2.5-2.4.7-3.5h0l1.3,3.3,2.4,5.3-5.7.5ZM4.7,177.3l1.4.8c1.2.8,1.5,1.7,1,3.4a15,15,0,0,0-.8,3.1l1.5.8a16.76,16.76,0,0,1,.8-3.5,3.2,3.2,0,0,0-.3-3.2h0a3.31,3.31,0,0,0,3.7-1.6,3.09,3.09,0,0,0,.3-2.6,4.76,4.76,0,0,0-2.6-2.7,18.43,18.43,0,0,0-2.9-1.4L.6,181.3l1.4.8Zm3-5a4.24,4.24,0,0,1,1.4.6c1.5.9,2.2,2.1,1.4,3.5s-2.2,1.6-3.7.7l-1.4-.8Zm7.5,55.4c3.1,1.2,6.4-.1,7.9-4.2s.2-6.7-3.1-8-6.4.4-7.8,4.2-.1,6.9,3,8Zm-1.4-7.4c1-2.6,3.1-4.5,5.7-3.5s2.8,3.9,1.9,6.2-3.2,4.4-5.6,3.5-2.9-3.7-2-6.2Zm-9.1-82,1.4.8c1.2.8,1.5,1.7,1,3.4a15,15,0,0,0-.8,3.1l1.5.8a16.76,16.76,0,0,1,.8-3.5,3.2,3.2,0,0,0-.3-3.2h0a3.31,3.31,0,0,0,3.7-1.6,3.09,3.09,0,0,0,.3-2.6,4.76,4.76,0,0,0-2.6-2.7,18.43,18.43,0,0,0-2.9-1.4L.6,142.3l1.4.8Zm3-5a4.24,4.24,0,0,1,1.4.6c1.5.9,2.2,2.1,1.4,3.5s-2.2,1.6-3.7.7l-1.4-.8Zm-3-34,1.4.8c1.2.8,1.5,1.7,1,3.4a15,15,0,0,0-.8,3.1l1.5.8a16.76,16.76,0,0,1,.8-3.5,3.2,3.2,0,0,0-.3-3.2h0A3.31,3.31,0,0,0,12,99.1a3.09,3.09,0,0,0,.3-2.6,4.76,4.76,0,0,0-2.6-2.7,18.43,18.43,0,0,0-2.9-1.4L.6,103.3l1.4.8Zm3-5a4.24,4.24,0,0,1,1.4.6c1.5.9,2.2,2.1,1.4,3.5s-2.2,1.6-3.7.7l-1.4-.8ZM20,20.5c-3.2-1.1-6.4.4-7.8,4.2s-.1,6.9,3,8,6.4-.1,7.9-4.2S23.3,21.8,20,20.5ZM21.4,28c-1,2.7-3.2,4.4-5.6,3.5s-2.9-3.7-2-6.2,3.1-4.5,5.7-3.5S22.3,25.7,21.4,28Zm21.2-6.1h2.5l.3-8L52,3.4H49.3l-2.9,5a36.19,36.19,0,0,0-2,3.8h-.1c-.5-1.3-1.1-2.5-1.8-3.9L40.1,3H37.3l5.6,11Zm-5.1,3L32,37l1.7.2,1.7-3.8,4.5.4.9,4.1,1.7.2L39.5,25Zm-1.7,7.2,1.6-3.5a22.07,22.07,0,0,0,.9-2.2h0c.1.7.3,1.5.5,2.4l.8,3.7ZM25.1,19.8c4.6,1.1,9.3-1.3,10.8-7.6S34.8,2.1,29.8.9,20.4,2.7,19,8.6,20.2,18.7,25.1,19.8ZM21.6,9.1c.9-4,3.7-7.2,7.7-6.3s4.9,5.2,4,8.9-3.9,7.1-7.6,6.2S20.6,13,21.6,9.1ZM28,231.2l1.1-5.3,5.7-6.2-1.9-.4-2.5,3-1.8,2.3h0c-.19-.94-.42-1.88-.7-2.8l-1-3.8-1.8-.4,2.4,8-1.2,5.2Zm160.8-50,6.7-.6,2.6,5.7,2.5-.2-8.1-18.3-2.9.3-4.7,19.4,2.5-.3Zm1.7-7.6c.3-1.2.5-2.3.7-3.5h0c.4,1.1.8,2.2,1.3,3.4l2.3,5.2-5.6.5Zm-65.6,28-5.2-18.1-2.4.7,5.3,18.1Zm88.6-17.5h-8.1V167.2H203v18.9h10.5Zm-41.8,21.7-2.4-12.5-1.6.3,2.4,12.5Zm64.4-45.3c.6-1.8,1.2-3.8,1.6-5.4h.1a30,30,0,0,0,.2,5.1l.5,6.3,1.2.4,3.7-5.5,2.7-4.2h0c-.4,1.5-.8,3.6-1.1,5.3l-1.1,5.5,1.6.4,2.3-12.5-2-.5-3.7,5.4a43.11,43.11,0,0,0-2.3,3.8h-.1c0-1.4-.1-2.8-.2-4.5l-.6-6.4-2-.5-4,12,1.5.4Zm-20.2,37.8,4.5.4,1,4,1.8.2-3.4-13h-2l-5.2,12.3h1.7Zm2-4.8c.3-.7.5-1.5.8-2.2h0c.1.7.3,1.5.5,2.3l.9,3.8-3.8-.3Zm-92,19.7,4.3-1.3,2.4,3.5,1.7-.5-7.7-11-1.9.6-.6,13.3,1.6-.4Zm.1-7.6h.1a10.93,10.93,0,0,0,1.2,2l2.2,3.2-3.6,1.1V208a19.27,19.27,0,0,0,.1-2.4Zm16.9,6.9-.4-1.3-5.2,1.5-3.1-10.9-1.5.4,3.4,12.2Zm17.2-8.4,4.3-.9,2.2,3.6,1.7-.4-6.9-11.5-2,.5L158,208.7l1.6-.4Zm.4-5.1c.1-.9.1-1.6.2-2.4h0l1.1,2.1,2,3.3-3.7.8Zm2.8-7.2c4.7-1,7.8-5.2,6.5-11.6s-5.3-8.6-10.4-7.5-7.7,5.7-6.4,11.6,5.5,8.6,10.3,7.5Zm-7.8-8.2c-.9-4,.3-8.1,4.2-8.9s6.8,2.5,7.6,6.2-.5,8.1-4.3,8.9-6.6-2.2-7.5-6.2Zm47.9,12c-.2-3.8-2.6-6.3-6.1-6.1s-5.7,3-5.5,7,2.8,6.3,6.1,6.1,5.7-2.7,5.5-7Zm-5.5,5.7c-2.6.1-4.2-2.2-4.3-4.9s1-5.4,3.7-5.5,4.2,2.3,4.4,4.9-1.2,5.3-3.8,5.5Zm59.9-66.9,1.5.6,5.2-11.5-1.4-.7Zm0-39,1.5.6,5.2-11.5-1.4-.7Zm2.1,3.4-7.1,17.5,2.3.9,7-17.5Zm-18.4,85.5,6.5,1.9.2,6.3,2.5.7-.9-19.9-2.8-.8-11.4,16.3,2.4.7Zm4.4-6.4,1.8-3h.1a21.64,21.64,0,0,0,0,3.6l.2,5.7-5.4-1.6ZM248,52.5l2.6-3.3,4.3,1.6-.2,4.2,1.7.6.4-13.4-1.9-.7-8.5,10.4Zm5.9-7.4,1.4-1.9h0a17.52,17.52,0,0,0-.2,2.4v3.9l-3.6-1.4Zm6,14.7-7.1,17.5,2.3.9,7-17.5Zm0,117-7.1,17.5,2.3.9,7-17.5Zm-3.5-4.2.4-13.4-1.9-.7-8.5,10.4,1.6.6,2.6-3.3,4.3,1.6-.2,4.2Zm-5-7.5,2.5-3,1.4-1.9h0a17.52,17.52,0,0,0-.2,2.4v3.9Zm6.4,8.3,1.5.6,5.2-11.5-1.4-.7Zm2.1-35.6-7.1,17.5,2.3.9,7-17.5ZM86.3,173.1l-1.5-8c-.5-2.8-1.1-5.9-1.6-8.2h0c1.1,2.1,2.4,4.2,3.9,6.6l5.2,8L94,171l1.1-9.6c.3-2.8.4-5.3.5-7.6h.1c.6,2.3,1.5,5.3,2.3,7.8l2.4,8,2.3-.6L97,151l-3,.7-1,9.7a53.88,53.88,0,0,0-.4,6.6h-.1c-.9-1.8-2.1-3.7-3.4-5.8l-5.3-8-3,.7,3.3,18.7ZM176.8,24.7l1.2,7.9,2.5-.3-1.3-8,4.6-11.7-2.7.5-1.9,5.5c-.5,1.6-1,2.9-1.3,4.2h0l-2.5-3.6L172,14.5l-2.8.4Zm12.8,26.4-4.7,19.4,2.5-.3,1.4-6,6.7-.6,2.6,5.7,2.5-.2-8.1-18.3Zm-.4,11.1,1.3-5.6c.3-1.2.5-2.3.7-3.5h0c.4,1.1.8,2.2,1.3,3.4l2.3,5.2Zm-55-16.4-1.5.4,3.4,12.2,6.8-1.9-.4-1.3-5.2,1.5Zm63.1,26.7c-3.4.2-5.7,3-5.5,7s2.8,6.3,6.1,6.1,5.7-2.7,5.5-7-2.6-6.3-6.1-6.1Zm.6,11.8c-2.6.1-4.2-2.2-4.3-4.9s1-5.4,3.7-5.5,4.2,2.3,4.4,4.9-1.2,5.3-3.8,5.5ZM159.4,16.7c-4.9,1.1-7.7,5.7-6.4,11.6s5.5,8.6,10.3,7.5,7.8-5.2,6.5-11.6S164.5,15.6,159.4,16.7ZM163,33.8c-3.7.8-6.6-2.2-7.5-6.2s.3-8.1,4.2-8.9,6.8,2.5,7.6,6.2S166.8,33,163,33.8Zm54.8,39-5.2,12.3h1.7l1.6-3.9,4.5.4,1,4,1.8.2-3.4-13Zm-1.5,7.3,1.6-3.6c.3-.7.5-1.5.8-2.2h0c.1.7.3,1.5.5,2.3l.9,3.8Zm27.6,10,1.6.4L247.8,78l-2-.5-3.7,5.4a43.11,43.11,0,0,0-2.3,3.8h-.1c0-1.4-.1-2.8-.2-4.5l-.6-6.4-2-.5-4,12,1.5.4,1.7-5.2c.6-1.8,1.2-3.8,1.6-5.4h.1a30,30,0,0,0,.2,5.1l.5,6.3,1.2.4,3.7-5.5,2.7-4.2h0c-.4,1.5-.8,3.6-1.1,5.3ZM210.3,75.9c-.5,1-1,1.8-1.3,2.6h-.1l-1.2-2.6-1.8-3.5h-1.8l3.9,7.3v5.4h1.6V79.7l4.3-7.2H212ZM247,55.5,235.6,71.8l2.4.7,3.5-5.2,6.5,1.9.2,6.3,2.5.7-.9-19.9Zm-4.4,10.1,3.3-4.7,1.8-3h.1a21.64,21.64,0,0,0,0,3.6l.2,5.7ZM124.7,48.5l-.6,13.3,1.6-.4.2-4.2,4.3-1.3,2.4,3.5,1.7-.5-7.7-11Zm4.8,6.3-3.6,1.1V52a19.22,19.22,0,0,0,0-2.4h.1a10.93,10.93,0,0,0,1.2,2Zm-.6,28.6,10.2-2.8-.6-2-7.8,2.2-4.6-16.2-2.3.7ZM234.4,48.7l1.7-5.2c.6-1.8,1.2-3.8,1.6-5.4h.1a30,30,0,0,0,.2,5.1l.5,6.3,1.2.4,3.7-5.5,2.7-4.2h0c-.4,1.5-.8,3.6-1.1,5.3L243.9,51l1.6.4L247.8,39l-2-.5-3.7,5.4a43.11,43.11,0,0,0-2.3,3.8h-.1c0-1.4-.1-2.8-.2-4.5l-.6-6.4-2-.5-4,12ZM86.3,134.1l-1.5-8c-.5-2.8-1.1-5.9-1.6-8.2h0c1.1,2.1,2.4,4.2,3.9,6.6l5.2,8L94,132l1.1-9.6c.3-2.8.4-5.3.5-7.6h.1c.6,2.3,1.5,5.3,2.3,7.8l2.4,8,2.3-.6L97,112l-3,.7-1,9.7a53.88,53.88,0,0,0-.4,6.6h-.1c-.9-1.8-2.1-3.7-3.4-5.8l-5.3-8-3,.7,3.3,18.7ZM85.1,59.3l-1.6.4L86.4,72l6.9-1.6L93,69l-5.3,1.3ZM83.5,176.7,86.4,189l6.9-1.6L93,186l-5.3,1.3-2.6-11Zm23.9,23.7,6.4-1.8,3.6,5.2,2.5-.7-11.4-16.4-2.8.8-1,19.9,2.4-.7Zm.2-11.2h.1c.6.9,1.1,1.9,1.9,3l3.2,4.7-5.4,1.6.2-5.8A14.64,14.64,0,0,0,107.6,189.2Zm2-6c3.1-.9,5-3.8,3.8-8s-3.9-5.6-7.2-4.6-4.9,4.1-3.9,8S106.3,184.1,109.6,183.2Zm-3.1-11.3c2.6-.8,4.6,1.4,5.3,3.8s0,5.5-2.5,6.2-4.5-1.2-5.3-3.8S103.9,172.6,106.5,171.9Zm18.4-87.3-5.2-18.1-2.4.7,5.3,18.1Zm-5.1-34.7-.8,3.9c-.2,1-.4,1.9-.5,2.8h0l-2-2.1-2.6-2.9-1.8.5,5.8,5.9,1.5,5.2,1.6-.5-1.5-5.2,2.1-8.1ZM105.7,31.5l-1,19.9,2.4-.7.3-6.3,6.4-1.8,3.6,5.2,2.5-.7L108.5,30.7Zm7.1,9.4-5.4,1.6.2-5.8a20.45,20.45,0,0,0,0-3.5h.1c.6.9,1.1,1.9,1.9,3ZM102.3,61.6c1.1,3.7,4,5.5,7.3,4.6s5-3.8,3.8-8-3.9-5.6-7.2-4.6S101.3,57.7,102.3,61.6Zm4.2-6.7c2.6-.8,4.6,1.4,5.3,3.8s0,5.5-2.5,6.2-4.5-1.2-5.3-3.8S103.9,55.6,106.5,54.9ZM79.3,216.6,81.9,229l1.6-.4-2.6-12.4ZM94,210l1.1-9.6c.3-2.8.4-5.3.5-7.6h.1c.6,2.3,1.5,5.3,2.3,7.8l2.4,8,2.3-.6L97,190l-3,.7-1,9.7a53.88,53.88,0,0,0-.4,6.6h-.1c-.9-1.8-2.1-3.7-3.4-5.8l-5.3-8-3,.7,3.3,18.7,2.2-.6-1.5-8c-.5-2.8-1.1-5.9-1.6-8.2h0c1.1,2.1,2.4,4.2,3.9,6.6l5.2,8Zm-10.5,5.7L86.4,228l6.9-1.6L93,225l-5.3,1.3-2.6-11Zm47.2,21.1-4.6-16.2-2.3.7,5.1,18.1,10.2-2.8-.6-2ZM81.1,135.2l-.3-2-8,1.4-3-16.5-2.4.4,3.4,18.6Zm28.5,87c3.1-.9,5-3.8,3.8-8s-3.9-5.6-7.2-4.6-4.9,4.1-3.9,8S106.3,223.1,109.6,222.2Zm-5.6-5.1c-.7-2.7-.1-5.5,2.5-6.2s4.6,1.4,5.3,3.8,0,5.5-2.5,6.2-4.5-1.2-5.3-3.8Zm-5.3,1.6h0a3.4,3.4,0,0,0,1.5-3.8,3,3,0,0,0-1.6-2,4.82,4.82,0,0,0-3.8-.1l-3,1L95,225.9l1.6-.4-1.4-5.3,1.5-.4c1.4-.3,2.3.2,3.1,1.8a27.31,27.31,0,0,0,1.5,2.7l1.7-.5a15.47,15.47,0,0,1-1.8-3.1A3.42,3.42,0,0,0,98.7,218.7Zm-2.2-.1-1.6.4-1.2-4.5,1.5-.5c1.7-.4,3-.1,3.4,1.5s-.4,2.6-2.1,3.1Zm-15.4-5.4-.3-2-8,1.4-3-16.5-2.4.4,3.4,18.6Zm177.6-55.5,9.4,4.6.9-1.8-7.2-3.6,7.5-15-2.2-1.1ZM81.1,174.2l-.3-2-8,1.4-3-16.5-2.4.4,3.4,18.6Zm-9.7,43.9-2,13.2,1.7-.3.6-4.1,4.4-.8,2,3.7,1.7-.3-6.4-11.7Zm4.1,6.8-3.7.7.6-3.9c.1-.8.1-1.6.2-2.3h0a15,15,0,0,0,1.1,2.1Zm44.2-2.4-2.4.7,5.3,18.1,2.3-.7Zm130.9-17.3,4.3,1.6-.2,4.2,1.7.6.4-13.4-1.9-.7-8.5,10.4,1.6.6Zm3.3-4.1,1.4-1.9h0a17.52,17.52,0,0,0-.2,2.4v3.9l-3.6-1.4Zm-35-189.7-3.7,18.5,2.3.3,1.5-7.9c.5-2.8,1.1-5.9,1.4-8.3h.1a59.43,59.43,0,0,0,1.2,7.5l1.9,9.3,1.8.2,4.5-8.6c1.3-2.5,2.3-4.7,3.3-6.8h0c-.3,2.3-.5,5.5-.7,8.1l-.6,8.3,2.4.3,1.2-18.9-3.1-.4-4.5,8.7c-1.1,2.2-2,4.2-2.8,6h0c-.3-2-.6-4.1-1.1-6.6l-2.1-9.4Zm39.8,185.3,9.4,4.6.9-1.8-7.2-3.6,7.5-15-2.2-1.1Zm3.4,20-2.2-.9-7.1,17.5,2.3.9Zm-18.2-9.6,1.6.4,2.3-12.5-2-.5-3.7,5.4a43.11,43.11,0,0,0-2.3,3.8h-.1c0-1.4-.1-2.8-.2-4.5l-.6-6.4-2-.5-4,12,1.5.4,1.7-5.2c.6-1.8,1.2-3.8,1.6-5.4h.1a30,30,0,0,0,.2,5.1l.5,6.3,1.2.4,3.7-5.5,2.7-4.2h0c-.4,1.5-.8,3.6-1.1,5.3Zm-26.1,21.7-5.2,12.3h1.7l1.6-3.9,4.5.4,1,4,1.8.2-3.4-13Zm-1.5,7.3,1.6-3.6c.3-.7.5-1.5.8-2.2h0c.1.7.3,1.5.5,2.3l.9,3.8Zm-27.5-15.9,6.7-.6,2.6,5.7,2.5-.2-8.1-18.3-2.9.3-4.7,19.4,2.5-.3Zm1.7-7.6c.3-1.2.5-2.3.7-3.5h0c.4,1.1.8,2.2,1.3,3.4l2.3,5.2-5.6.5Zm6.8,15.9c-3.4.2-5.7,3-5.5,7s2.8,6.3,6.1,6.1,5.7-2.7,5.5-7-2.6-6.3-6.1-6.1Zm.6,11.8c-2.6.1-4.2-2.2-4.3-4.9s1-5.4,3.7-5.5,4.2,2.3,4.4,4.9-1.2,5.3-3.8,5.5Zm15.6-17.2h-8.1V206.2H203v18.9h10.5Zm-50.2,7.7c4.7-1,7.8-5.2,6.5-11.6s-5.3-8.6-10.4-7.5-7.7,5.7-6.4,11.6,5.5,8.6,10.3,7.5Zm-7.8-8.2c-.9-4,.3-8.1,4.2-8.9s6.8,2.5,7.6,6.2-.5,8.1-4.3,8.9-6.6-2.2-7.5-6.2Zm94.3-10.3-2.8-.8-11.4,16.3,2.4.7,3.5-5.2,6.5,1.9.2,6.3,2.5.7Zm-7.2,9.3,3.3-4.7,1.8-3h.1a21.64,21.64,0,0,0,0,3.6l.2,5.7ZM171.7,10.8,169.6,0h-1.7l2.2,11.1Zm-27.5,6.3,1.5-.3-1-5.4c-.3-1.9-.8-3.9-1.1-5.5h0c.7,1.4,1.6,2.8,2.6,4.4l3.5,5.4,1.2-.3.7-6.6a46.43,46.43,0,0,0,.3-5h.1c.4,1.5,1,3.5,1.5,5.2l1.7,5.3,1.6-.4-3.9-12-2.1.5-.6,6.5a36,36,0,0,0-.3,4.4h0c-.7-1.2-1.4-2.5-2.3-3.9L144,4.1l-2.1.5Zm15.9-8,4.3-.9,2.2,3.6,1.7-.4L161.4,0h-.3l-1.7.4L158,13.7l1.6-.4Zm.4-5.1c.1-.9.1-1.6.2-2.4h0l1.1,2.1,2,3.3-3.7.8ZM137.3,17.7,134.2,6.8l-1.5.4,3.4,12.2,6.8-1.9-.4-1.3Zm-13.2,5.1,1.6-.4.2-4.2,4.3-1.3,2.4,3.5,1.7-.5-7.7-11-1.9.6ZM126,10.6h.1a10.93,10.93,0,0,0,1.2,2l2.2,3.2-3.6,1.1V13A19.27,19.27,0,0,0,126,10.6Zm84.3,26.3c-.5,1-1,1.8-1.3,2.6h-.1l-1.2-2.6-1.8-3.5h-1.8l3.9,7.3v5.4h1.6V40.7l4.3-7.2H212ZM81.1,96.2l-.3-2-8,1.4-3-16.5-2.4.4,3.4,18.6Zm45-70.6-2.3.7,5.1,18.1,10.2-2.8-.6-2-7.8,2.2Zm71.2,7.9c-3.4.2-5.7,3-5.5,7s2.8,6.3,6.1,6.1,5.7-2.7,5.5-7-2.6-6.3-6.1-6.1Zm.6,11.8c-2.6.1-4.2-2.2-4.3-4.9s1-5.4,3.7-5.5,4.2,2.3,4.4,4.9S200.5,45.1,197.9,45.3Zm-8.3-33.2-4.7,19.4,2.5-.3,1.4-6,6.7-.6,2.6,5.7,2.5-.2-8.1-18.3Zm-.4,11.1,1.3-5.6c.3-1.2.5-2.3.7-3.5h0c.4,1.1.8,2.2,1.3,3.4l2.3,5.2Zm28.6,10.6-5.2,12.3h1.7l1.6-3.9,4.5.4,1,4,1.8.2-3.4-13Zm-1.5,7.3,1.6-3.6c.3-.7.5-1.5.8-2.2h0c.1.7.3,1.5.5,2.3l.9,3.8ZM81.1,18.2l-.3-2-8,1.4-3-16.5-2.4.4,3.4,18.6Zm2.4,15.4L80.9,21.2l-1.6.4L81.9,34ZM71.4,23.1l-2,13.2,1.7-.3.6-4.1,4.4-.8,2,3.7,1.7-.3L73.4,22.8Zm4.1,6.8-3.7.7.6-3.9c.1-.8.1-1.6.2-2.3h0a15,15,0,0,0,1.1,2.1Zm49.4,15.7-5.2-18.1-2.4.7,5.3,18.1ZM81.1,57.2l-.3-2-8,1.4-3-16.5-2.4.4,3.4,18.6Zm5.2-1.1-1.5-8c-.5-2.8-1.1-5.9-1.6-8.2h0c1.1,2.1,2.4,4.2,3.9,6.6l5.2,8L94,54l1.1-9.6c.3-2.8.4-5.3.5-7.6h.1c.6,2.3,1.5,5.3,2.3,7.8l2.4,8,2.3-.6L97,34l-3,.7-1,9.7a53.88,53.88,0,0,0-.4,6.6h-.1c-.9-1.8-2.1-3.7-3.4-5.8l-5.3-8-3,.7,3.3,18.7Zm33.5-45.2-.8,3.9c-.2,1-.4,1.9-.5,2.8h0l-2-2.1-2.6-2.9-1.8.5,5.8,5.9,1.5,5.2,1.6-.5-1.5-5.2,2.1-8.1ZM102.3,22.6c1.1,3.7,4,5.5,7.3,4.6s5-3.8,3.8-8-3.9-5.6-7.2-4.6S101.3,18.7,102.3,22.6Zm4.2-6.7c2.6-.8,4.6,1.4,5.3,3.8s0,5.5-2.5,6.2-4.5-1.2-5.3-3.8S103.9,16.6,106.5,15.9ZM85.1,20.3l-1.6.4L86.4,33l6.9-1.6L93,30l-5.3,1.3Z" transform="translate(-0.6 0)"/></svg>